<svg xmlns="http://www.w3.org/2000/svg" width="2000" height="1246" fill="none" viewBox="0 0 2000 1246">
  <g clip-path="url(#a)">
    <path fill="#fff" d="M0 421.538c1.17-2.651 13.747-3.525 16.946-3.777 145.703-11.406 311.21 11.865 459.06 1.467 150.828 22.575 145.747 121.231 147.036 245.158 1.629 156.486 24.116 313.891-178.143 324.719-140.311 7.51-286.961-5.748-427.938 0C14.087 989.683 0 986.439 0 983.861V421.524v.014Zm82.894 72.511v418.798c0 1.733 5.807 4.607 8.044 3.792 118.387-6.473 245.454 8.281 362.834-.044 39.832-2.83 70.985-15.762 84.287-56.335 11.391-34.737 8.636-234.463 5.303-280.458-4.118-56.749-35.626-84.346-91.042-88.049-118.239-7.896-245.173 6.118-364.315 0-1.822-.074-4.355.548-5.11 2.296ZM1998.24 985.876c-3.11 1.925-63.89.429-73.09-1.215l-1.33-201.415c-.97-3.985-4.34-3.836-7.48-4.296-11.91-1.748-35.63-1.066-49.04-1.303-120.19-2.163-241.45 3.777-361.88 1.94l-2.96 206.437c-13.26-1.852-63.42 5.466-72.56-.504-1.51-.992-3.38-4.014-3.64-5.97l.74-454.438c4.71-65.341 44.2-101.944 108.76-105.796 125.66-7.495 258.62 5.733 385.03 0 48.41 4.281 78.57 34.13 79.21 83.606l-1.76 482.998v-.044Zm-90.56-486.154c-2.44-1.763-5.52-2.888-8.1-4.488-110.74 1.111-239.28-13.065-348.98-3.466-25.78 2.251-39.02 10.828-46.62 36.262l.85 178.321 10.22 6.073 403.43-.888c5.75-3.763 7.13-9.733 7.57-16.25 2.39-34.767 2.92-131.082-1.57-164.264-1.15-8.502-9.88-26.323-16.8-31.285v-.015Zm-596.83-80.406c2.23.963 2.43 4.415 2.29 6.578-6.54 147.405 8.42 301.966 0 448.542-6.72 116.876-88.25 114.254-182.9 116.239-70.43 1.481-278.349 9.795-333.351-13.198-29.226-12.221-45.002-41.137-54.542-69.77-5.096-160.234-.637-321.283-2.266-481.828-.756-2.726 3.496-6.563 5.273-6.563h72.54c.163 0 2.222 2.059 2.222 2.222v454.305c0 22.457 29.716 38.707 49.639 40.648 99.456 9.717 214.255-7.229 315.315.089 18.68-2.296 34.41-6.622 43.92-24.175 9.57-153.643 1.55-310.321 4.06-465.06-.82-2.237 2.06-8.043 3.79-8.043 9.98 0 70.36-1.571 74.02 0l-.01.014Zm109.64-224.122c-20.6 20.931-42.87 10.68-61.4 20.768-6.69 3.644-18.39 23.227-26.02 30.278-38.44 35.581-61.61 10.902-101.8 16.576-27.05 3.821-60.76 31.285-84.82 32.218-27.48 1.067-42.77-23.345-73.92-20.723-28.07 2.355-35.83 29.567-59.58 33.67-40.806 7.051-53.071-34.411-106.517-4.385-5.763 3.244-8.459 10.147-16.384 13.229-35.151 13.628-62.2-9.644-94.463-12.829-15.984-1.585-30.427 2.563-46.573-.8-23.138-4.799-28.012-20.175-56.512-16.65-13.258 1.645-24.96 10.547-38.885 10.059-13.983-.489-25.167-12.118-38.366-11.762-13.983.385-23.73 12.176-35.611 16.146-47.446 15.85 23.761-41.803 35.833-44.099 19.954-3.777 24.25 9.14 36.204 8.192 11.954-.948 27.315-19.701 37.862-22.945 36.011-11.036 51.372 16.842 79.68 17.138 16.443.163 28.486-11.139 44.899-13.924 59.119-10.029 59.445-25.656 107.781-44.691 41.373-16.295 35.892-1.941 68.066 2.207 32.646 4.222 47.436-40.322 88.906-31.152 15.53 3.436 16.89 20.664 36.4 16.679 26.63-5.436 37.8-47.639 77.23-50.29 44.28-2.978 54.67 34.1 85.94 35.433 21.5.918 39.61-28.56 69.01-15.791 52.29 22.694 34.6 14.709 77.61-9.021 30.88-17.05 45.7-6.726 73.59-13.732 5.3-1.333 36.81-25.227 36.44-12.428-.43 14.679-73.07 30.959-85.49 38.869-15.52 9.91-17.79 22.22-29.14 33.745l.03.015ZM1344.9 62.675c-18.62 2.473-43.89 21.745-59.72 22.827-13.99.948-23.5-9.155-33.62-10.903-44.24-7.629-55.07 30.027-87.39 33.819-32.33 3.792-51.36-20.457-85.3-11.273-17.58 4.755-35.5 29.108-51.68 38.603-60.542 35.507-78.896-6.281-129.305-.518-21.049 2.399-38.247 24.16-59.415 27.893-42.159 7.451-56.764-26.679-102.685-7.925-9.377 3.836-19.168 13.406-29.271 15.124-23.627 4.029-38.751-11.48-61.801-9.999-15.776 1.022-37.151 18.576-47.446 17.435-7.377-.815-5.496-3.214-3.718-9.391 4.77-16.576 59.83-61.727 76.48-64.215 6.785-1.008 10.666 2.533 19.45.281 12.191-3.126 25.36-23.76 42.084-27.464 24.812-5.48 36.826 17.436 55.579 20.872 46.276 8.518 67.148-49.298 114.817-42.262 14.783 2.178 36.811 15.598 53.209 14.147 34.381-3.037 73.802-63.8 124.962-69.06 31.2-3.199 31.88 4.845 55.64 12.073 37.3 11.347 68.04-20.264 109.62-8.962 30.93 8.414 22.82 41.996 48.39 47.803 15.38 3.495 31.82-6.592 49.46-5.037 5.54.489 50.75 16.072 34.25 16.072-9.75 0-23.48-1.214-32.57 0l-.02.06ZM291.346 1109.37c101.707-12.91 107.603 144.39-.504 134.27-75.443-7.07-79.221-124.13.504-134.27Zm39.729 29.67c-52.039-48.41-112.61 48.22-51.817 80.65 50.706 27.05 92.242-43.04 51.817-80.65Zm632.625-30.11c2.489 1.51 1.037 20.72 0 20.72h-68.837c-4.31 0-3.673 35.52 1.482 35.52h53.298c3.688 0 3.318 20.73 2.222 20.73h-56.987c-5.599 0-5.777 35.52 1.482 35.52h68.096c2.325 0 1.762 20.43-1.689 21.98-6.251-.44-93.782 1.77-93.782-3.48v-127.26c0-.62 5.777-3.7 6.666-3.7 11.436 0 84.316-2.3 88.079 0l-.03-.03Zm907.46 1.48c2.35-3.87 87.6-2.93 90.44.59 2.85 3.53 2.36 15.38-1.67 17.91-3.45 2.18-52.56-1.01-61.46.68-10.72 2.03-7.44 31.57-4.41 34.15 5.86 4.97 52.18.75 57.07 5.09 3.56 3.16 2.31 17.07-5.23 17.07h-52.55c-1.83 0-3.49 35.52 2.22 35.52h68.09l-.23 20.8c-7.1.43-92.29 2.83-92.29-2.3 0-16.43-3.36-123.96 0-129.48l.02-.03Zm-687.11 17.97c1.31 3.09-10.92 17.57-13.84 17.57s-18.83-18.5-37-18.9c-64.13-1.43-56.22 111.29 11.43 96.89 14.15-3.01 31.26-28.03 39.82-4.82 2.71 7.35-20.84 20.08-27.14 21.94-102.21 30.32-126.16-125.67-30.1-132.21 12.4-.84 51.89 8.02 56.83 19.53Zm470.24-19.45c9.14 3.11 31.4 100.02 42.93 99.28 5.39-.36 29.98-91.43 41.77-98.94 4.15-.22 18.03-2.44 19.42 3.58l-49.78 124.39c-1.62 6.71-19 5.91-22.95 4.58-6.56-2.21-42.51-113.8-53.58-127.08-.7-.97.43-5.81.73-5.81 4.48 0 18.71-.93 21.46 0ZM56.912 1136.2c-40.366 29.27-12.132 101.81 40.766 87.38 7.762-2.12 21.982-15.02 27.063-13.8 1.763.43 11.525 10.26 11.318 12.13-.311 2.93-24.783 18.63-29.153 19.79C.4 1269.98-18.65 1111.46 82.065 1108.85c11.85-.31 46.572 8.45 51.964 19.32 2.178 4.4-9.273 15.94-11.924 16.35-5.333.82-15.895-11.65-21.583-14.01-15.495-6.46-30.515-3.81-43.625 5.7l.015-.01Zm1294.638-6.56c-4.75 3.02 4.08 110.42-3.66 112.58-2.6.72-18.32.78-19.8-2.55-6.01-13.39 5.54-94.94-.95-107.08-4.8-8.98-57.5 8.26-42.71-20.4 3.49-6.76 91.8-1.79 104.67-3.05 4.42 1.98 4.03 20.5-2.74 20.5-4.99 0-33.31-.94-34.78 0h-.03Zm-871.692 112.25c-5.378-3.45 3.614-112.36-.223-127.78 1.867-6.88 22.294-9.21 23.435 1.4 1.837 17.18-5.614 93.29-.504 102.92 4.103 7.75 54.764-.73 63.445 3.17 4.029 1.8 4.266 17.98-1.585 20.19-1.452.55-20.783 1.61-24.797 1.83-6.518.36-57.268-.13-59.786-1.74l.015.01Zm200.674-132.65c2.666-1.02 16.368-1.45 17.983 2.12 6.044 13.45-5.585 94.77.948 107.08 4.044 7.62 52.942-.55 61.934 3.2 2.444 1.02 3.392 19.01-2.029 21.17-5.718 2.3-79.977 1.6-82.11-2.16.578-15.35-4.799-128.28 3.274-131.4v-.01Zm822.028 1.17c.98-1.59 22.2-3.04 22.2.74v128.74c0 3.35-22.2 3.35-22.2 0 0-16.41-3.38-123.97 0-129.48Z"/>
  </g>
  <defs>
    <clipPath id="a">
      <path fill="#fff" d="M0 0h2000v1245.08H0z"/>
    </clipPath>
  </defs>
</svg>
